<?xml version="1.0" ?><svg height="160px" id="SVGRoot" version="1.1" viewBox="0 0 16 16" width="270px" xmlns="http://www.w3.org/2000/svg" xmlns:cc="http://creativecommons.org/ns#" xmlns:dc="http://purl.org/dc/elements/1.1/" xmlns:inkscape="http://www.inkscape.org/namespaces/inkscape" xmlns:rdf="http://www.w3.org/1999/02/22-rdf-syntax-ns#" xmlns:sodipodi="http://sodipodi.sourceforge.net/DTD/sodipodi-0.dtd" xmlns:svg="http://www.w3.org/2000/svg"><defs id="defs842"/><g id="layer1"><path d="M 6.9785156 2.9375 C 6.2285888 2.9375 5.625 3.5410888 5.625 4.2910156 L 5.625 4.5839844 C 5.625 4.6734804 5.6375509 4.7593466 5.6542969 4.84375 L 3.6523438 4.84375 C 2.8925276 4.84375 2.28125 5.4550275 2.28125 6.2148438 L 2.28125 10.441406 C 2.28125 11.201222 2.8925276 11.8125 3.6523438 11.8125 L 12.722656 11.8125 C 13.482472 11.8125 14.09375 11.201222 14.09375 10.441406 L 14.09375 6.2148438 C 14.09375 5.4550275 13.482472 4.84375 12.722656 4.84375 L 10.720703 4.84375 C 10.737453 4.759347 10.75 4.6734805 10.75 4.5839844 L 10.75 4.2910156 C 10.750003 3.5410888 10.146411 2.9375 9.3964844 2.9375 L 6.9785156 2.9375 z M 7.3007812 3.4550781 L 9.0742188 3.4550781 C 9.6241259 3.4550781 10.066412 3.8973588 10.066406 4.4472656 L 10.066406 4.6621094 C 10.066406 4.7248294 10.058005 4.7845631 10.046875 4.84375 L 6.328125 4.84375 C 6.317 4.784563 6.3085938 4.7248302 6.3085938 4.6621094 L 6.3085938 4.4472656 C 6.3085936 3.8973588 6.7508745 3.4550781 7.3007812 3.4550781 z M 6.34375 7.6875 L 9.90625 7.6875 C 10.235188 7.6875 10.5 7.9523125 10.5 8.28125 C 10.5 8.6101875 10.235188 8.875 9.90625 8.875 L 6.34375 8.875 C 6.0148125 8.875 5.75 8.6101875 5.75 8.28125 C 5.75 7.9523125 6.0148125 7.6875 6.34375 7.6875 z " id="rect779" style="fill:#000000;stroke:none;stroke-width:1.09200716"/></g></svg>