<?xml version="1.0" ?><!DOCTYPE svg  PUBLIC '-//W3C//DTD SVG 1.1//EN'  'http://www.w3.org/Graphics/SVG/1.1/DTD/svg11.dtd'><svg height="160px" style="enable-background:new 0 0 512 512;" version="1.1" viewBox="0 0 512 512" width="512px" xml:space="preserve" xmlns="http://www.w3.org/2000/svg" xmlns:xlink="http://www.w3.org/1999/xlink"><g id="_x36_46_x2C__performance_x2C__progress_x2C__work_x2C__setting_x2C__gear_x2C_"><g><path d="M250.422,222.884c-4.327-4.301-10.296-6.985-16.89-6.985    s-12.563,2.685-16.891,6.985c-3.596,3.622-6.073,8.366-6.776,13.684h23.667c1.747,0,3.206,1.434,3.206,3.207    c0,1.772-1.459,3.206-3.206,3.206h-23.667c0.678,5.238,3.076,9.956,6.621,13.527l0.156,0.156    c4.328,4.326,10.296,6.985,16.891,6.985s12.563-2.659,16.89-6.985c4.301-4.301,6.986-10.27,6.986-16.89    C257.408,233.18,254.724,227.211,250.422,222.884 M233.532,209.486c8.341,0,15.926,3.389,21.399,8.888    c5.5,5.474,8.889,13.06,8.889,21.4c0,8.366-3.389,15.925-8.889,21.425c-5.473,5.474-13.058,8.861-21.399,8.861    c-8.367,0-15.952-3.388-21.426-8.861l-0.156-0.182c-4.692-4.771-7.82-11.053-8.549-18.037h-31.565    c0.808,15.769,7.559,30,18.011,40.479c11.182,11.156,26.613,18.09,43.686,18.09c17.046,0,32.477-6.934,43.659-18.09    c11.182-11.182,18.09-26.613,18.09-43.685c0-17.047-6.908-32.503-18.09-43.659c-11.183-11.182-26.613-18.09-43.659-18.09    c-17.073,0-32.503,6.908-43.686,18.09c-10.452,10.451-17.203,24.684-18.011,40.452h31.565c0.755-7.089,3.936-13.449,8.705-18.193    C217.581,212.875,225.166,209.486,233.532,209.486z M237.156,140.023c-0.939-0.939-2.216-1.512-3.624-1.512    c-1.434,0-2.711,0.572-3.623,1.512c-0.939,0.912-1.512,2.215-1.512,3.622s0.573,2.711,1.512,3.624    c0.912,0.938,2.189,1.512,3.623,1.512c1.407,0,2.711-0.574,3.624-1.486c0.912-0.938,1.485-2.216,1.485-3.649    c0-1.355-0.496-2.581-1.355-3.493L237.156,140.023z M233.532,132.1c3.181,0,6.073,1.303,8.159,3.389l0.183,0.207    c1.981,2.086,3.18,4.875,3.18,7.95c0,3.181-1.278,6.073-3.362,8.159c-2.112,2.084-5.004,3.389-8.159,3.389    c-3.18,0-6.073-1.305-8.158-3.389c-2.085-2.086-3.39-4.979-3.39-8.159c0-3.18,1.304-6.073,3.39-8.157    C227.459,133.402,230.326,132.1,233.532,132.1z M306.619,171.796c0-1.303-0.496-2.633-1.486-3.622    c-1.016-0.991-2.319-1.514-3.649-1.514c-1.251,0-2.502,0.471-3.466,1.356l-0.156,0.157c-0.991,0.989-1.486,2.319-1.486,3.622    c0,1.278,0.443,2.528,1.355,3.52l0.131,0.104c1.016,1.017,2.319,1.512,3.622,1.512c1.33,0,2.634-0.495,3.649-1.485    C306.123,174.428,306.619,173.125,306.619,171.796z M309.668,163.637c2.242,2.269,3.363,5.214,3.363,8.159    s-1.121,5.892-3.363,8.159c-2.293,2.24-5.239,3.389-8.185,3.389s-5.891-1.148-8.158-3.389l-0.183-0.209    c-2.138-2.215-3.18-5.082-3.18-7.95c0-2.945,1.121-5.891,3.362-8.159l0.262-0.207c2.215-2.112,5.082-3.154,7.896-3.154    C304.455,160.275,307.4,161.396,309.668,163.637z M333.283,243.396c0.913-0.912,1.486-2.188,1.486-3.622    c0-1.355-0.495-2.581-1.355-3.493l-0.131-0.131c-0.938-0.938-2.215-1.512-3.623-1.512c-1.433,0-2.711,0.574-3.623,1.512    c-0.938,0.912-1.512,2.216-1.512,3.624c0,1.407,0.574,2.71,1.512,3.622c0.912,0.938,2.19,1.512,3.623,1.512    C331.068,244.908,332.371,244.335,333.283,243.396z M341.181,239.774c0,3.18-1.276,6.047-3.362,8.132    c-2.11,2.111-5.004,3.414-8.158,3.414c-3.18,0-6.072-1.303-8.158-3.389c-2.086-2.084-3.389-4.978-3.389-8.157    c0-3.181,1.303-6.073,3.389-8.159s4.952-3.389,8.158-3.389c3.18,0,6.073,1.303,8.158,3.389l0.183,0.209    C339.982,233.909,341.181,236.698,341.181,239.774z M301.483,312.887c1.33,0,2.634-0.521,3.649-1.512    c0.99-0.99,1.486-2.32,1.486-3.623c0-1.33-0.496-2.633-1.486-3.623c-0.99-1.018-2.319-1.512-3.649-1.512    c-1.303,0-2.606,0.494-3.622,1.512c-0.991,0.99-1.486,2.293-1.486,3.623c0,1.251,0.443,2.528,1.355,3.492l0.131,0.131    C298.877,312.365,300.181,312.887,301.483,312.887z M309.643,315.884c-2.268,2.269-5.214,3.389-8.159,3.389    s-5.891-1.12-8.158-3.362l-0.183-0.209c-2.138-2.241-3.18-5.109-3.18-7.949c0-2.945,1.121-5.918,3.362-8.158    c2.268-2.268,5.213-3.389,8.158-3.389s5.892,1.121,8.159,3.389c2.268,2.24,3.389,5.213,3.389,8.158    S311.91,313.643,309.643,315.884z M229.883,339.525c0.938,0.938,2.215,1.512,3.649,1.512c1.407,0,2.711-0.574,3.624-1.512    c0.912-0.912,1.485-2.216,1.485-3.623c0-1.408-0.574-2.711-1.485-3.623c-0.939-0.938-2.216-1.513-3.624-1.513    c-1.434,0-2.711,0.574-3.623,1.513c-0.939,0.912-1.512,2.215-1.512,3.623C228.398,337.31,228.971,338.587,229.883,339.525z     M233.532,347.423c-3.18,0-6.073-1.277-8.158-3.362c-2.085-2.086-3.39-4.979-3.39-8.158s1.304-6.073,3.39-8.159    c2.084-2.085,4.978-3.388,8.158-3.388c3.181,0,6.073,1.303,8.159,3.388c2.084,2.086,3.362,4.979,3.362,8.159    c0,3.154-1.278,6.047-3.362,8.133C239.579,346.146,236.687,347.423,233.532,347.423z M160.419,307.752    c0,1.303,0.495,2.606,1.512,3.623c0.991,0.99,2.32,1.512,3.623,1.512c1.304,0,2.633-0.521,3.624-1.512    c1.017-0.99,1.512-2.32,1.512-3.623s-0.521-2.633-1.512-3.623c-0.991-1.018-2.32-1.512-3.624-1.512    c-1.303,0-2.632,0.494-3.623,1.512C160.915,305.119,160.419,306.422,160.419,307.752z M157.396,315.91    c-2.242-2.268-3.388-5.213-3.388-8.158s1.146-5.891,3.388-8.158s5.213-3.389,8.158-3.389s5.917,1.121,8.159,3.389    c2.242,2.24,3.388,5.188,3.388,8.158c0,2.945-1.146,5.891-3.388,8.132c-2.242,2.269-5.213,3.389-8.159,3.389    S159.638,318.152,157.396,315.91z M133.781,236.15c-0.912,0.887-1.459,2.138-1.512,3.493v0.052l0,0v0.079v0.078l0,0v0.052    c0.053,1.355,0.6,2.606,1.512,3.492c0.913,0.938,2.19,1.512,3.624,1.512c1.407,0,2.71-0.573,3.623-1.512    c0.886-0.886,1.46-2.11,1.512-3.492v-0.052l0,0v-0.078v-0.079l0,0v-0.052c-0.052-1.303-0.547-2.476-1.381-3.362l-0.131-0.131    c-0.938-0.938-2.215-1.512-3.623-1.512S134.693,235.213,133.781,236.15z M161.931,168.174c-1.017,1.016-1.512,2.319-1.512,3.622    c0,1.304,0.495,2.632,1.512,3.623c0.991,1.017,2.32,1.512,3.623,1.512c1.277,0,2.528-0.469,3.493-1.354l0.131-0.131    c1.017-1.018,1.512-2.32,1.512-3.649c0-1.303-0.495-2.606-1.512-3.622c-0.991-0.991-2.32-1.514-3.624-1.514    c-1.251,0-2.528,0.471-3.492,1.383L161.931,168.174z M444.895,273.007c-1.407,1.068-3.415,0.808-4.483-0.573    c-1.068-1.407-0.808-3.414,0.574-4.483l32.398-24.97h-66.102v6.75l-48.507,7.273l-0.365,2.345    c-0.678,4.379-1.615,8.784-2.789,13.137c-1.172,4.405-2.555,8.68-4.145,12.825l-0.859,2.188l38.367,30.548l-9.956,17.229    l-45.667-17.959l-1.484,1.825c-2.764,3.414-5.762,6.777-8.967,9.982c-3.232,3.232-6.568,6.229-10.01,9.019l-1.824,1.46    l17.933,45.692l-17.203,9.931l-30.574-38.342l-2.19,0.834c-4.117,1.59-8.418,2.997-12.823,4.17    c-4.353,1.146-8.731,2.086-13.137,2.789l-2.32,0.365l-7.298,48.48h-19.888l-7.272-48.48l-2.346-0.365    c-4.404-0.703-8.783-1.643-13.162-2.789c-4.406-1.173-8.68-2.58-12.798-4.17l-2.189-0.834l-30.549,38.342l-17.229-9.931    l17.959-45.692l-1.825-1.46c-3.493-2.815-6.829-5.813-10.009-8.992c-3.154-3.181-6.178-6.517-8.992-10.009l-1.485-1.825    l-45.667,17.959l-9.958-17.229l38.369-30.548l-0.834-2.188c-1.59-4.094-2.997-8.394-4.17-12.825    c-1.173-4.353-2.112-8.758-2.789-13.137l-0.365-2.345l-48.481-7.273v-6.75H126.3c0.574,1.902,1.59,3.596,2.945,4.951    c2.085,2.086,4.978,3.389,8.159,3.389c3.153,0,6.047-1.303,8.158-3.414c1.356-1.355,2.373-3.049,2.92-4.926h16.942    c0.808,17.541,8.262,33.363,19.887,44.988c12.355,12.354,29.375,19.965,48.221,19.965c18.819,0,35.865-7.611,48.194-19.965    c12.328-12.329,19.966-29.375,19.966-48.194s-7.638-35.866-19.966-48.195c-12.329-12.329-29.375-19.966-48.194-19.966    c-18.845,0-35.865,7.637-48.221,19.966c-11.625,11.626-19.079,27.446-19.887,44.988h-16.942c-0.521-1.798-1.486-3.413-2.737-4.743    l-0.183-0.209c-2.084-2.086-4.978-3.389-8.158-3.389c-3.206,0-6.073,1.303-8.159,3.389c-1.355,1.355-2.372,3.051-2.945,4.952    H59.782v-6.751l48.481-7.271l0.365-2.346c0.677-4.379,1.616-8.784,2.789-13.137c1.173-4.432,2.58-8.732,4.17-12.824l0.834-2.189    L78.053,161.5l9.958-17.229l45.667,17.959l1.485-1.824c2.814-3.493,5.838-6.83,9.019-10.035c3.154-3.154,6.49-6.152,9.983-8.967    l1.825-1.459L138.03,94.252l17.229-9.93l30.549,38.341l2.189-0.833c4.092-1.592,8.393-2.973,12.824-4.172    c4.327-1.146,8.732-2.084,13.136-2.788l2.346-0.364l7.272-48.482h19.888l7.298,48.508l2.32,0.339    c4.405,0.677,8.784,1.615,13.137,2.788c4.431,1.174,8.731,2.58,12.85,4.172l2.19,0.833l30.548-38.341l17.203,9.93l-17.933,45.693    l1.824,1.459c3.441,2.789,6.777,5.813,10.01,9.045c3.205,3.205,6.203,6.542,8.967,9.957l1.484,1.824l45.667-17.959l9.956,17.229    l-38.367,30.574l0.859,2.189c1.59,4.119,2.973,8.393,4.145,12.799c1.174,4.353,2.111,8.758,2.789,13.137l0.365,2.346l48.507,7.299    v6.724h66.102l-32.398-24.97c-1.382-1.068-1.643-3.076-0.574-4.484c1.068-1.381,3.076-1.641,4.483-0.572l39.723,30.627    l0.078,0.025l0.052,0.053l0,0l0.053,0.025v0.025l0.052,0.027l0.026,0.025v0.025l0.052,0.027l0,0l0.053,0.053l0,0l0.052,0.051l0,0    l0.026,0.027l0.052,0.051l0,0l0.053,0.053l0,0l0.026,0.025l0.025,0.026l0.026,0.026l0.026,0.052l0,0l0.052,0.052l0,0l0.026,0.053    l0.025,0.026v0.025l0.053,0.026l0,0l0.026,0.052v0.026l0.025,0.026l0.026,0.026l0.026,0.025l0.025,0.053l0,0l0.026,0.052v0.026    l0.026,0.026l0.026,0.025v0.026l0.025,0.052l0,0l0.026,0.053v0.025l0.026,0.052l0.025,0.027v0.025l0.026,0.053l0.026,0.051l0,0    v0.053l0.026,0.025v0.027l0.025,0.051l0,0v0.027v0.053h0.026v0.025v0.053l0,0l0.026,0.025v0.053l0.025,0.051v0.027v0.025v0.025    l0,0v0.053l0.026,0.025l0,0v0.053c0.026,0.156,0.052,0.313,0.052,0.47c0,0.156-0.025,0.339-0.052,0.495v0.025l-0.026,0.025v0.08    v0.025l0,0l-0.025,0.078l0,0v0.053l-0.026,0.025l0,0v0.053v0.025h-0.026v0.052v0.026l0,0l-0.025,0.052l0,0l-0.026,0.053v0.025    l-0.026,0.053l0,0l-0.026,0.078l-0.025,0.052v0.026l-0.026,0.052l0,0l-0.026,0.053l-0.025,0.026v0.052l-0.026,0.026l-0.026,0.025    v0.026l-0.026,0.026l-0.025,0.052v0.026l-0.053,0.026v0.025l-0.025,0.053l0,0l-0.053,0.051l0,0l-0.052,0.078l0,0l-0.026,0.053l0,0    l-0.026,0.025l-0.025,0.053l-0.053,0.027v0.025h-0.025l-0.026,0.053l0,0l-0.026,0.025l-0.026,0.025l0,0l-0.025,0.027l-0.053,0.051    l0,0l-0.025,0.027l0,0l-0.026,0.025l-0.026,0.025l-0.026,0.027l-0.025,0.025l-0.026,0.025l0,0l-0.026,0.026l-0.052,0.026l0,0    l-0.026,0.026l-0.026,0.025l0,0l-0.052,0.026l-0.025,0.026l-0.026,0.025L444.895,273.007z M86.212,433.307    c-1.772,0-3.206-1.432-3.206-3.206c0-1.771,1.434-3.205,3.206-3.205h253.04c1.772,0,3.207,1.434,3.207,3.205    c0,1.774-1.435,3.206-3.207,3.206H86.212z M215.626,445.977c-1.772,0-3.206-1.434-3.206-3.206c0-1.748,1.434-3.182,3.206-3.182    h206.436c1.772,0,3.206,1.434,3.206,3.182c0,1.772-1.434,3.206-3.206,3.206H215.626z M443.174,445.977    c-1.746,0-3.18-1.434-3.18-3.206c0-1.748,1.434-3.182,3.18-3.182h25.831c1.772,0,3.206,1.434,3.206,3.182    c0,1.772-1.434,3.206-3.206,3.206H443.174z M29.182,445.167c-1.747,0-3.18-1.434-3.18-3.18c0-1.771,1.434-3.205,3.18-3.205h97.822    c1.772,0,3.206,1.434,3.206,3.205c0,1.746-1.434,3.18-3.206,3.18H29.182z M157.396,163.637l0.209-0.182    c2.241-2.138,5.083-3.18,7.949-3.18c2.945,0,5.892,1.12,8.132,3.361c2.268,2.269,3.415,5.214,3.415,8.159    s-1.146,5.892-3.388,8.159l-0.209,0.207c-2.215,2.112-5.108,3.182-7.95,3.182c-2.945,0-5.891-1.121-8.132-3.363    c-2.268-2.268-3.415-5.239-3.415-8.185S155.154,165.905,157.396,163.637z" style="fill-rule:evenodd;clip-rule:evenodd;"/></g></g><g id="Layer_1"/></svg>